<mxfile host="app.diagrams.net" modified="2021-04-05T06:09:59.899Z" agent="5.0 (Macintosh; Intel Mac OS X 10_15_6) AppleWebKit/605.1.15 (KHTML, like Gecko) Version/14.0.2 Safari/605.1.15" etag="Rvs3PHUkfi2vdnRndmol" version="14.5.6" type="github">
  <diagram id="a8V6xE4K6zmkr7lATeWG" name="Page-1">
    <mxGraphModel dx="946" dy="620" grid="1" gridSize="10" guides="1" tooltips="1" connect="1" arrows="1" fold="1" page="1" pageScale="1" pageWidth="827" pageHeight="1169" math="0" shadow="0">
      <root>
        <mxCell id="0" />
        <mxCell id="1" parent="0" />
        <mxCell id="vXU-PP5SjP0_AMvp50s_-1" value="&lt;font style=&quot;font-size: 24px&quot;&gt;移动状态&lt;/font&gt;" style="rounded=1;whiteSpace=wrap;html=1;" vertex="1" parent="1">
          <mxGeometry x="300" y="180" width="120" height="60" as="geometry" />
        </mxCell>
        <mxCell id="vXU-PP5SjP0_AMvp50s_-8" style="edgeStyle=orthogonalEdgeStyle;rounded=0;orthogonalLoop=1;jettySize=auto;html=1;exitX=1;exitY=0;exitDx=0;exitDy=0;entryX=0.083;entryY=0.15;entryDx=0;entryDy=0;entryPerimeter=0;" edge="1" parent="1" source="vXU-PP5SjP0_AMvp50s_-2" target="vXU-PP5SjP0_AMvp50s_-3">
          <mxGeometry relative="1" as="geometry" />
        </mxCell>
        <mxCell id="vXU-PP5SjP0_AMvp50s_-9" value="按下移动键" style="edgeLabel;html=1;align=center;verticalAlign=bottom;resizable=0;points=[];" vertex="1" connectable="0" parent="vXU-PP5SjP0_AMvp50s_-8">
          <mxGeometry x="-0.1691" y="1" relative="1" as="geometry">
            <mxPoint x="3" as="offset" />
          </mxGeometry>
        </mxCell>
        <mxCell id="vXU-PP5SjP0_AMvp50s_-14" style="edgeStyle=orthogonalEdgeStyle;rounded=0;orthogonalLoop=1;jettySize=auto;html=1;exitX=1;exitY=1;exitDx=0;exitDy=0;entryX=1;entryY=0;entryDx=0;entryDy=0;" edge="1" parent="1" source="vXU-PP5SjP0_AMvp50s_-2" target="vXU-PP5SjP0_AMvp50s_-4">
          <mxGeometry relative="1" as="geometry" />
        </mxCell>
        <mxCell id="vXU-PP5SjP0_AMvp50s_-15" value="连按两下移动键" style="edgeLabel;html=1;align=center;verticalAlign=bottom;resizable=0;points=[];horizontal=0;" vertex="1" connectable="0" parent="vXU-PP5SjP0_AMvp50s_-14">
          <mxGeometry x="-0.1695" relative="1" as="geometry">
            <mxPoint as="offset" />
          </mxGeometry>
        </mxCell>
        <mxCell id="vXU-PP5SjP0_AMvp50s_-19" style="edgeStyle=orthogonalEdgeStyle;orthogonalLoop=1;jettySize=auto;html=1;exitX=1;exitY=1;exitDx=0;exitDy=0;entryX=0;entryY=0;entryDx=0;entryDy=0;curved=1;" edge="1" parent="1" source="vXU-PP5SjP0_AMvp50s_-2" target="vXU-PP5SjP0_AMvp50s_-5">
          <mxGeometry relative="1" as="geometry" />
        </mxCell>
        <mxCell id="vXU-PP5SjP0_AMvp50s_-20" value="按下跳跃键" style="edgeLabel;html=1;align=center;verticalAlign=middle;resizable=0;points=[];" vertex="1" connectable="0" parent="vXU-PP5SjP0_AMvp50s_-19">
          <mxGeometry x="0.3899" y="-25" relative="1" as="geometry">
            <mxPoint as="offset" />
          </mxGeometry>
        </mxCell>
        <mxCell id="vXU-PP5SjP0_AMvp50s_-2" value="&lt;font style=&quot;font-size: 29px&quot;&gt;IDLE&lt;/font&gt;" style="ellipse;whiteSpace=wrap;html=1;" vertex="1" parent="1">
          <mxGeometry x="180" y="290" width="120" height="80" as="geometry" />
        </mxCell>
        <mxCell id="vXU-PP5SjP0_AMvp50s_-10" style="edgeStyle=orthogonalEdgeStyle;rounded=0;orthogonalLoop=1;jettySize=auto;html=1;exitX=0;exitY=1;exitDx=0;exitDy=0;entryX=0.933;entryY=0.85;entryDx=0;entryDy=0;entryPerimeter=0;" edge="1" parent="1" source="vXU-PP5SjP0_AMvp50s_-3" target="vXU-PP5SjP0_AMvp50s_-2">
          <mxGeometry relative="1" as="geometry" />
        </mxCell>
        <mxCell id="vXU-PP5SjP0_AMvp50s_-11" value="松开移动键" style="edgeLabel;html=1;align=center;verticalAlign=bottom;resizable=0;points=[];" vertex="1" connectable="0" parent="vXU-PP5SjP0_AMvp50s_-10">
          <mxGeometry x="0.3808" y="-1" relative="1" as="geometry">
            <mxPoint x="2" as="offset" />
          </mxGeometry>
        </mxCell>
        <mxCell id="vXU-PP5SjP0_AMvp50s_-23" style="edgeStyle=orthogonalEdgeStyle;curved=1;orthogonalLoop=1;jettySize=auto;html=1;exitX=0;exitY=1;exitDx=0;exitDy=0;entryX=0;entryY=0;entryDx=0;entryDy=0;strokeColor=#000000;" edge="1" parent="1" source="vXU-PP5SjP0_AMvp50s_-3" target="vXU-PP5SjP0_AMvp50s_-5">
          <mxGeometry relative="1" as="geometry" />
        </mxCell>
        <mxCell id="vXU-PP5SjP0_AMvp50s_-25" value="按下跳跃键&lt;br&gt;" style="edgeLabel;html=1;align=center;verticalAlign=top;resizable=0;points=[];horizontal=0;" vertex="1" connectable="0" parent="vXU-PP5SjP0_AMvp50s_-23">
          <mxGeometry x="-0.5618" y="-1" relative="1" as="geometry">
            <mxPoint as="offset" />
          </mxGeometry>
        </mxCell>
        <mxCell id="vXU-PP5SjP0_AMvp50s_-3" value="&lt;span style=&quot;font-size: 29px&quot;&gt;WALK&lt;br&gt;&lt;/span&gt;" style="ellipse;whiteSpace=wrap;html=1;" vertex="1" parent="1">
          <mxGeometry x="430" y="290" width="120" height="80" as="geometry" />
        </mxCell>
        <mxCell id="vXU-PP5SjP0_AMvp50s_-16" style="edgeStyle=orthogonalEdgeStyle;rounded=0;orthogonalLoop=1;jettySize=auto;html=1;exitX=0;exitY=0;exitDx=0;exitDy=0;entryX=0;entryY=1;entryDx=0;entryDy=0;" edge="1" parent="1" source="vXU-PP5SjP0_AMvp50s_-4" target="vXU-PP5SjP0_AMvp50s_-2">
          <mxGeometry relative="1" as="geometry" />
        </mxCell>
        <mxCell id="vXU-PP5SjP0_AMvp50s_-17" value="松开移动键" style="edgeLabel;html=1;align=center;verticalAlign=bottom;resizable=0;points=[];horizontal=0;" vertex="1" connectable="0" parent="vXU-PP5SjP0_AMvp50s_-16">
          <mxGeometry x="0.1695" y="3" relative="1" as="geometry">
            <mxPoint as="offset" />
          </mxGeometry>
        </mxCell>
        <mxCell id="vXU-PP5SjP0_AMvp50s_-31" style="edgeStyle=orthogonalEdgeStyle;curved=1;orthogonalLoop=1;jettySize=auto;html=1;exitX=1;exitY=0.5;exitDx=0;exitDy=0;strokeColor=#000000;" edge="1" parent="1" source="vXU-PP5SjP0_AMvp50s_-4" target="vXU-PP5SjP0_AMvp50s_-5">
          <mxGeometry relative="1" as="geometry" />
        </mxCell>
        <mxCell id="vXU-PP5SjP0_AMvp50s_-32" value="按下跳跃键" style="edgeLabel;html=1;align=center;verticalAlign=middle;resizable=0;points=[];" vertex="1" connectable="0" parent="vXU-PP5SjP0_AMvp50s_-31">
          <mxGeometry x="-0.2769" y="4" relative="1" as="geometry">
            <mxPoint as="offset" />
          </mxGeometry>
        </mxCell>
        <mxCell id="vXU-PP5SjP0_AMvp50s_-4" value="&lt;span style=&quot;font-size: 29px&quot;&gt;RUN&lt;br&gt;&lt;/span&gt;" style="ellipse;whiteSpace=wrap;html=1;" vertex="1" parent="1">
          <mxGeometry x="180" y="600" width="120" height="80" as="geometry" />
        </mxCell>
        <mxCell id="vXU-PP5SjP0_AMvp50s_-26" style="edgeStyle=orthogonalEdgeStyle;curved=1;orthogonalLoop=1;jettySize=auto;html=1;exitX=1;exitY=0;exitDx=0;exitDy=0;entryX=1;entryY=1;entryDx=0;entryDy=0;strokeColor=#000000;" edge="1" parent="1" source="vXU-PP5SjP0_AMvp50s_-5" target="vXU-PP5SjP0_AMvp50s_-3">
          <mxGeometry relative="1" as="geometry" />
        </mxCell>
        <mxCell id="vXU-PP5SjP0_AMvp50s_-27" value="松开跳跃键且横向速度属于WALK" style="edgeLabel;html=1;align=center;verticalAlign=top;resizable=0;points=[];horizontal=0;" vertex="1" connectable="0" parent="vXU-PP5SjP0_AMvp50s_-26">
          <mxGeometry x="0.2714" y="-4" relative="1" as="geometry">
            <mxPoint y="32.28" as="offset" />
          </mxGeometry>
        </mxCell>
        <mxCell id="vXU-PP5SjP0_AMvp50s_-28" style="edgeStyle=orthogonalEdgeStyle;curved=1;orthogonalLoop=1;jettySize=auto;html=1;exitX=0;exitY=0.5;exitDx=0;exitDy=0;entryX=1;entryY=1;entryDx=0;entryDy=0;strokeColor=#000000;" edge="1" parent="1" source="vXU-PP5SjP0_AMvp50s_-5" target="vXU-PP5SjP0_AMvp50s_-2">
          <mxGeometry relative="1" as="geometry">
            <Array as="points">
              <mxPoint x="430" y="520" />
              <mxPoint x="282" y="520" />
            </Array>
          </mxGeometry>
        </mxCell>
        <mxCell id="vXU-PP5SjP0_AMvp50s_-29" value="松开跳跃键且横向速度为0" style="edgeLabel;html=1;align=center;verticalAlign=middle;resizable=0;points=[];" vertex="1" connectable="0" parent="vXU-PP5SjP0_AMvp50s_-28">
          <mxGeometry x="0.0202" y="-5" relative="1" as="geometry">
            <mxPoint x="19" y="5" as="offset" />
          </mxGeometry>
        </mxCell>
        <mxCell id="vXU-PP5SjP0_AMvp50s_-33" style="edgeStyle=orthogonalEdgeStyle;curved=1;orthogonalLoop=1;jettySize=auto;html=1;exitX=0;exitY=1;exitDx=0;exitDy=0;entryX=1;entryY=1;entryDx=0;entryDy=0;strokeColor=#000000;" edge="1" parent="1" source="vXU-PP5SjP0_AMvp50s_-5" target="vXU-PP5SjP0_AMvp50s_-4">
          <mxGeometry relative="1" as="geometry" />
        </mxCell>
        <mxCell id="vXU-PP5SjP0_AMvp50s_-34" value="松开跳跃键且横向速度属于RUN" style="edgeLabel;html=1;align=center;verticalAlign=middle;resizable=0;points=[];" vertex="1" connectable="0" parent="vXU-PP5SjP0_AMvp50s_-33">
          <mxGeometry x="0.1817" relative="1" as="geometry">
            <mxPoint x="10.43" as="offset" />
          </mxGeometry>
        </mxCell>
        <mxCell id="vXU-PP5SjP0_AMvp50s_-5" value="&lt;span style=&quot;font-size: 29px&quot;&gt;JUMP&lt;br&gt;&lt;/span&gt;" style="ellipse;whiteSpace=wrap;html=1;" vertex="1" parent="1">
          <mxGeometry x="430" y="600" width="120" height="80" as="geometry" />
        </mxCell>
      </root>
    </mxGraphModel>
  </diagram>
</mxfile>
